# File created by Blade
# Date/Time:  Wed Apr 08 14:47:20 2015
# Frame Rate: 120.000 fps
#------------------------------------------------------
:FULLY-SPECIFIED
:DEGREES
2251
root 7.100144 32.191863 -13.345166 16.708414 9.463534 -3.241131
Spine -14.027438 9.335532 -8.624658
Head -19.853537 -20.459692 22.261063
LeftShoulder -25.415400 49.123701 2.569265
LeftArm 50.908135 9.580778 -80.040868
LeftForeArm -8.827455 0.000000 128.010897
LeftHand 8.632557 -0.000000 -2.466688
LeftHandThumb1 -26.253704 0.000000 33.147579
RightShoulder -1.876974 -0.646766 -19.763152
RightArm 30.594300 -34.867609 69.109515
RightForeArm 8.277847 -0.000000 116.233796
RightHand 10.230980 -0.000000 2.003014
RightHandThumb1 -24.326973 -0.000000 -32.862282
LeftUpLeg -33.461499 17.269008 -12.413920
LeftLeg 12.320716 -0.000000 -0.000000
LeftFoot -15.624511 40.829436 -17.464107
LeftToeBase -6.294762 -0.000000 0.000000
RightUpLeg -10.012725 -11.883900 8.640733
RightLeg 28.761157 -0.000000 -0.000000
RightFoot -11.397322 -20.224922 14.331252
RightToeBase -20.717840 -0.000000 0.000000
2252
root 7.056221 32.163259 -13.472774 16.913364 9.071973 -3.092860
Spine -14.008703 9.118893 -8.497850
Head -19.890477 -19.966569 21.962703
LeftShoulder -25.310808 49.062989 2.543596
LeftArm 50.931464 9.804644 -79.914396
LeftForeArm -9.011244 -0.000000 127.865800
LeftHand 8.707748 -0.000000 -2.218671
LeftHandThumb1 -26.253704 0.000000 33.147579
RightShoulder -1.797893 -0.958703 -19.680470
RightArm 30.184442 -34.771855 69.363770
RightForeArm 8.259649 -0.000000 116.131145
RightHand 10.160217 -0.000000 1.847493
RightHandThumb1 -24.326973 -0.000000 -32.862282
LeftUpLeg -34.041728 17.025087 -12.511762
LeftLeg 12.679354 -0.000000 -0.000000
LeftFoot -15.439038 41.083747 -17.289774
LeftToeBase -6.410162 -0.000000 0.000000
RightUpLeg -9.483181 -11.402027 8.621060
RightLeg 26.946407 -0.000000 -0.000000
RightFoot -12.341881 -20.836877 14.210586
RightToeBase -20.033828 -0.000000 0.000000
2253
root 7.010109 32.135362 -13.596646 17.053645 8.717885 -2.924543
Spine -13.958229 9.022573 -8.455049
Head -19.878120 -19.602028 21.722029
LeftShoulder -24.827736 48.976803 2.889870
LeftArm 50.909626 10.033725 -79.786048
LeftForeArm -9.148258 -0.000000 127.684473
LeftHand 8.823981 -0.000000 -1.962193
LeftHandThumb1 -26.253704 0.000000 33.147579
RightShoulder -1.871226 -1.361893 -19.556327
RightArm 29.763583 -34.615657 69.639333
RightForeArm 8.317406 -0.000000 116.006929
RightHand 10.277420 -0.000000 1.582380
RightHandThumb1 -24.326973 -0.000000 -32.862282
LeftUpLeg -34.567429 16.748844 -12.587843
LeftLeg 13.073805 -0.000000 -0.000000
LeftFoot -15.151923 41.271794 -16.982873
LeftToeBase -6.319142 -0.000000 0.000000
RightUpLeg -8.998556 -11.037247 8.564305
RightLeg 25.485226 -0.000000 -0.000000
RightFoot -13.193551 -21.091076 14.152843
RightToeBase -19.745296 -0.000000 0.000000
2254
root 6.960545 32.107063 -13.720550 17.134767 8.423487 -2.731480
Spine -13.824693 8.664303 -8.357686
Head -19.752083 -19.095105 21.426041
LeftShoulder -24.578070 48.881488 3.064984
LeftArm 50.910843 10.161374 -79.644739
LeftForeArm -9.430408 -0.000000 127.511348
LeftHand 8.750657 -0.000000 -1.767317
LeftHandThumb1 -26.253704 0.000000 33.147579
RightShoulder -1.765384 -1.659264 -19.422412
RightArm 29.446854 -34.555148 69.816630
RightForeArm 7.883317 -0.000000 115.872928
RightHand 10.282501 0.000000 1.329595
RightHandThumb1 -24.326973 -0.000000 -32.862282
LeftUpLeg -35.028959 16.379368 -12.617097
LeftLeg 13.481718 -0.000000 -0.000000
LeftFoot -14.996751 41.225395 -16.904093
LeftToeBase -6.183215 -0.000000 0.000000
RightUpLeg -8.535264 -10.649803 8.476070
RightLeg 24.275057 -0.000000 -0.000000
RightFoot -14.049799 -21.279943 14.241767
RightToeBase -18.928024 -0.000000 0.000000
2255
root 6.909237 32.078672 -13.845768 17.207106 8.133166 -2.530126
Spine -13.696142 8.229431 -8.264910
Head -19.531077 -18.553966 21.101765
LeftShoulder -24.336873 48.758150 3.275020
LeftArm 50.876023 10.269495 -79.456802
LeftForeArm -9.577697 -0.000000 127.329173
LeftHand 8.816768 0.000000 -1.536888
LeftHandThumb1 -26.253704 0.000000 33.147579
RightShoulder -1.628063 -1.896816 -19.365520
RightArm 29.056477 -34.561148 70.170773
RightForeArm 7.554255 0.000000 115.695453
RightHand 10.367540 -0.000000 0.804089
RightHandThumb1 -24.326973 -0.000000 -32.862282
LeftUpLeg -35.490118 15.991747 -12.621600
LeftLeg 13.896037 -0.000000 -0.000000
LeftFoot -14.776010 40.874777 -16.820061
LeftToeBase -5.964929 -0.000000 0.000000
RightUpLeg -8.086717 -10.075421 8.351173
RightLeg 23.121889 -0.000000 -0.000000
RightFoot -14.840618 -21.543542 14.362900
RightToeBase -17.784014 -0.000000 0.000000
2256
root 6.857655 32.050773 -13.968366 17.245961 7.841488 -2.328899
Spine -13.556180 7.805585 -8.181812
Head -19.258118 -18.008753 20.750768
LeftShoulder -24.094406 48.665468 3.497578
LeftArm 50.928353 10.336622 -79.223404
LeftForeArm -9.606058 -0.000000 127.145187
LeftHand 8.770322 -0.000000 -1.388537
LeftHandThumb1 -26.253704 0.000000 33.147579
RightShoulder -1.516909 -2.101891 -19.292813
RightArm 28.632663 -34.577000 70.546319
RightForeArm 7.360865 0.000000 115.539851
RightHand 10.312409 -0.000000 0.558798
RightHandThumb1 -24.326973 -0.000000 -32.862282
LeftUpLeg -35.891415 15.559218 -12.576930
LeftLeg 14.254015 -0.000000 -0.000000
LeftFoot -14.367726 40.287939 -16.556265
LeftToeBase -5.678227 -0.000000 0.000000
RightUpLeg -7.603513 -9.358798 8.191606
RightLeg 21.951081 -0.000000 -0.000000
RightFoot -15.717900 -21.674591 14.660761
RightToeBase -16.001092 -0.000000 0.000000
2257
root 6.806300 32.022906 -14.086258 17.252808 7.551662 -2.164058
Spine -13.432241 7.399589 -8.065821
Head -18.897822 -17.507448 20.376452
LeftShoulder -23.827806 48.575401 3.743914
LeftArm 51.001254 10.372079 -78.954461
LeftForeArm -9.551417 -0.000000 126.952719
LeftHand 8.715147 -0.000000 -1.362844
LeftHandThumb1 -26.253704 0.000000 33.147579
RightShoulder -1.456197 -2.359517 -19.205539
RightArm 28.276689 -34.609617 70.873940
RightForeArm 7.195632 -0.000000 115.371147
RightHand 10.282202 -0.000000 0.321322
RightHandThumb1 -24.326973 -0.000000 -32.862282
LeftUpLeg -36.214140 15.110752 -12.467383
LeftLeg 14.490564 -0.000000 -0.000000
LeftFoot -13.850502 39.547861 -16.040376
LeftToeBase -4.840388 -0.000000 0.000000
RightUpLeg -7.067377 -8.645310 8.034863
RightLeg 20.681819 -0.000000 -0.000000
RightFoot -16.226804 -21.926377 14.389460
RightToeBase -15.100568 -0.000000 0.000000
2258
root 6.752334 31.994021 -14.204738 17.229217 7.269974 -2.088909
Spine -13.302083 7.058773 -7.856407
Head -18.514693 -17.055101 19.970706
LeftShoulder -23.451827 48.456645 4.062374
LeftArm 51.057677 10.378243 -78.665398
LeftForeArm -9.361056 -0.000000 126.806575
LeftHand 8.631497 0.000000 -1.310203
LeftHandThumb1 -26.253704 0.000000 33.147579
RightShoulder -1.452628 -2.620819 -19.157861
RightArm 27.912062 -34.652362 71.191888
RightForeArm 7.063515 -0.000000 115.219341
RightHand 10.234010 -0.000000 0.235871
RightHandThumb1 -24.326973 -0.000000 -32.862282
LeftUpLeg -36.500928 14.608921 -12.205669
LeftLeg 14.685201 -0.000000 -0.000000
LeftFoot -13.636344 38.746487 -16.240460
LeftToeBase -4.886237 -0.000000 0.000000
RightUpLeg -6.479841 -7.799477 7.952091
RightLeg 19.313215 -0.000000 -0.000000
RightFoot -16.956301 -22.138706 14.570274
RightToeBase -14.116327 -0.000000 0.000000
2259
root 6.696739 31.966624 -14.317652 17.214438 6.983831 -2.052490
Spine -13.219995 6.739885 -7.646092
Head -18.117451 -16.608031 19.605963
LeftShoulder -23.028462 48.307393 4.456588
LeftArm 51.079011 10.384255 -78.358862
LeftForeArm -9.177963 -0.000000 126.683517
LeftHand 8.617140 -0.000000 -1.282264
LeftHandThumb1 -26.253704 0.000000 33.147579
RightShoulder -1.515668 -2.874480 -19.079693
RightArm 27.519458 -34.733192 71.548721
RightForeArm 7.100186 -0.000000 115.041836
RightHand 10.329459 -0.000000 0.172284
RightHandThumb1 -24.326973 -0.000000 -32.862282
LeftUpLeg -36.712063 14.025945 -11.855053
LeftLeg 14.730748 -0.000000 -0.000000
LeftFoot -13.158812 38.422188 -16.009048
LeftToeBase -5.422075 -0.000000 0.000000
RightUpLeg -5.855351 -6.912650 7.902948
RightLeg 17.845361 -0.000000 -0.000000
RightFoot -17.451459 -22.494103 14.552056
RightToeBase -13.472935 -0.000000 0.000000
2260
root 6.649498 31.935824 -14.430147 17.165530 6.612941 -1.969693
Spine -13.119813 6.447599 -7.468674
Head -17.644039 -16.115414 19.166154
LeftShoulder -22.826448 48.254917 4.612727
LeftArm 51.316361 10.341331 -77.940964
LeftForeArm -8.847006 -0.000000 126.516646
LeftHand 8.665455 -0.000000 -1.249477
LeftHandThumb1 -26.253704 0.000000 33.147579
RightShoulder -1.510826 -3.030977 -19.035875
RightArm 27.013478 -34.819650 71.995961
RightForeArm 7.241529 -0.000000 114.902746
RightHand 10.510012 -0.000000 0.357072
RightHandThumb1 -24.326973 -0.000000 -32.862282
LeftUpLeg -36.850286 13.453336 -11.539287
LeftLeg 14.735856 -0.000000 -0.000000
LeftFoot -12.592832 38.659296 -15.613914
LeftToeBase -5.399906 -0.000000 0.000000
RightUpLeg -5.302996 -6.179321 7.754474
RightLeg 16.647725 -0.000000 -0.000000
RightFoot -17.956785 -22.545465 14.590877
RightToeBase -12.840824 -0.000000 0.000000
2261
root 6.601863 31.904435 -14.536885 17.112339 6.237885 -1.902203
Spine -13.057241 6.164174 -7.291353
Head -17.109701 -15.676425 18.711879
LeftShoulder -22.588169 48.138281 4.816618
LeftArm 51.475757 10.284908 -77.510267
LeftForeArm -8.592678 -0.000000 126.402463
LeftHand 8.616327 -0.000000 -1.239675
LeftHandThumb1 -26.253704 0.000000 33.147579
RightShoulder -1.533523 -3.297280 -18.972416
RightArm 26.608352 -34.918652 72.374853
RightForeArm 7.249333 -0.000000 114.818863
RightHand 10.531666 0.000000 0.086434
RightHandThumb1 -24.326973 -0.000000 -32.862282
LeftUpLeg -36.971572 12.919915 -11.218660
LeftLeg 14.760892 -0.000000 -0.000000
LeftFoot -12.325069 39.273787 -15.514639
LeftToeBase -5.511363 -0.000000 0.000000
RightUpLeg -4.797200 -5.629736 7.612167
RightLeg 15.576616 -0.000000 -0.000000
RightFoot -18.391639 -22.392705 14.606058
RightToeBase -12.082296 -0.000000 0.000000
2262
root 6.557143 31.874478 -14.648856 17.030744 5.762711 -1.848531
Spine -12.956249 6.026987 -7.144181
Head -16.621730 -15.281875 18.298775
LeftShoulder -22.329460 47.992567 5.015228
LeftArm 51.691401 10.210262 -77.060285
LeftForeArm -8.239044 0.000000 126.276671
LeftHand 8.605400 -0.000000 -1.221119
LeftHandThumb1 -26.253704 0.000000 33.147579
RightShoulder -1.635926 -3.518619 -18.894544
RightArm 26.164401 -35.032474 72.749210
RightForeArm 7.418763 -0.000000 114.752287
RightHand 10.795616 -0.000000 0.000129
RightHandThumb1 -24.326973 -0.000000 -32.862282
LeftUpLeg -37.079093 12.542620 -10.950371
LeftLeg 14.815246 -0.000000 -0.000000
LeftFoot -12.201113 40.071267 -15.506135
LeftToeBase -5.476274 -0.000000 0.000000
RightUpLeg -4.379055 -4.987232 7.468594
RightLeg 14.694163 -0.000000 -0.000000
RightFoot -18.807190 -22.361378 14.714294
RightToeBase -11.618294 -0.000000 0.000000
